<svg width="32" height="31" viewBox="0 0 32 31" fill="none" xmlns="http://www.w3.org/2000/svg">
<g clip-path="url(#clip0_243_49)">
<path d="M30.9101 27.63L28.0001 22.75L24.8201 17.41C24.6449 17.1046 24.3923 16.8508 24.0876 16.6743C23.783 16.4979 23.4371 16.4049 23.0851 16.4049C22.733 16.4049 22.3872 16.4979 22.0825 16.6743C21.7779 16.8508 21.5252 17.1046 21.3501 17.41L21.2001 17.34C19.7858 16.5881 18.2117 16.1868 16.6101 16.17H9.93007C9.40615 16.1733 8.88375 16.2269 8.37008 16.33C6.52966 16.6423 4.81338 17.4634 3.41546 18.7005C2.01753 19.9376 0.99379 21.5413 0.460073 23.33C-0.169927 25.2 0.0500606 27.15 0.0100606 29.11H14.6901C14.7496 29.1 14.8105 29.1 14.8701 29.11C14.946 29.1365 15.0123 29.1853 15.0601 29.25C15.1992 29.664 15.4701 30.021 15.8312 30.2666C16.1923 30.5122 16.6239 30.6328 17.0601 30.61H29.0601C29.2761 30.613 29.4914 30.5861 29.7001 30.53C30.001 30.4637 30.2816 30.3258 30.518 30.1282C30.7545 29.9305 30.9399 29.6788 31.0585 29.3944C31.1772 29.11 31.2257 28.8012 31.1998 28.4941C31.174 28.187 31.0746 27.8906 30.9101 27.63ZM14.9801 28.09H1.07006C1.06366 28.0671 1.06366 28.0429 1.07006 28.02C0.971646 26.6806 1.06256 25.334 1.34008 24.02C1.74422 22.3603 2.61235 20.8499 3.84304 19.6652C5.07373 18.4806 6.61614 17.6706 8.29006 17.33C8.89117 17.1982 9.50469 17.1312 10.1201 17.13C12.2501 17.13 14.3901 17.13 16.5201 17.13C17.9766 17.124 19.4133 17.4669 20.7101 18.13L20.8601 18.21L14.9801 28.09ZM29.2401 29.59H17.0901C16.8482 29.6192 16.604 29.5592 16.4033 29.4211C16.2026 29.283 16.0592 29.0764 16.0001 28.84C15.9673 28.7063 15.9647 28.5669 15.9924 28.432C16.02 28.2971 16.0773 28.1701 16.1601 28.06C17.1201 26.46 18.0734 24.86 19.0201 23.26L22.1701 18C22.2496 17.8254 22.3777 17.6774 22.5391 17.5736C22.7004 17.4698 22.8882 17.4146 23.0801 17.4146C23.2719 17.4146 23.4597 17.4698 23.6211 17.5736C23.7824 17.6774 23.9105 17.8254 23.9901 18L29.9901 28.08C30.0767 28.224 30.1257 28.3874 30.1325 28.5553C30.1393 28.7232 30.1037 28.8901 30.0289 29.0406C29.9542 29.1911 29.8427 29.3203 29.7049 29.4163C29.567 29.5124 29.4071 29.5721 29.2401 29.59Z" fill="#161616"/>
<path d="M13.3001 15.16C14.8037 15.1858 16.281 14.7637 17.544 13.9476C18.8071 13.1314 19.7989 11.9579 20.3931 10.5765C20.9874 9.19511 21.1573 7.66814 20.8813 6.18987C20.6053 4.7116 19.8958 3.34883 18.8431 2.27492C17.7904 1.20102 16.4421 0.464502 14.9696 0.15908C13.4971 -0.146343 11.967 -0.00687128 10.574 0.559745C9.18106 1.12636 7.98809 2.09452 7.14689 3.34106C6.30569 4.58759 5.8543 6.05618 5.85011 7.55999C5.84714 9.55069 6.6264 11.4629 8.01994 12.8845C9.41348 14.3061 11.3098 15.1233 13.3001 15.16ZM13.4301 1.01C14.7317 1.01004 16.0039 1.39665 17.0854 2.12081C18.1669 2.84497 19.0089 3.87402 19.5046 5.07745C20.0004 6.28087 20.1276 7.60444 19.87 8.88024C19.6124 10.156 18.9817 11.3266 18.0578 12.2434C17.134 13.1602 15.9587 13.7819 14.6809 14.0298C13.4032 14.2776 12.0807 14.1404 10.8811 13.6354C9.68145 13.1305 8.65884 12.2806 7.94297 11.1936C7.2271 10.1066 6.85021 8.8315 6.86012 7.52999C6.87331 5.7962 7.57132 4.13791 8.80201 2.91659C10.0327 1.69527 11.6963 1.00995 13.4301 1.01Z" fill="#161616"/>
<path d="M23.6498 20.87H22.5498V25.9H23.6498V20.87Z" fill="#161616"/>
<path d="M23.8499 27.33C23.8499 27.5325 23.7701 27.7268 23.6279 27.8709C23.4856 28.015 23.2924 28.0973 23.0899 28.0999C22.8936 28.0922 22.7078 28.0087 22.5717 27.867C22.4356 27.7253 22.3597 27.5364 22.3599 27.3399C22.3811 27.1572 22.4687 26.9887 22.606 26.8663C22.7434 26.744 22.9209 26.6764 23.1049 26.6764C23.2888 26.6764 23.4663 26.744 23.6037 26.8663C23.7411 26.9887 23.8286 27.1572 23.8499 27.3399V27.33Z" fill="black"/>
</g>
<defs>
<clipPath id="clip0_243_49">
<rect width="31.2" height="30.61" fill="white"/>
</clipPath>
</defs>
</svg>
