<svg width="60" height="60" viewBox="0 0 60 60" fill="none" xmlns="http://www.w3.org/2000/svg">
<rect x="0.25" y="0.25" width="59.5" height="59.5" rx="5.75" stroke="#0E1726" stroke-opacity="0.08" stroke-width="0.5"/>
<path d="M30 15C25.6667 17.6218 17 22.9298 17 23.1868C17 23.4342 17 32.262 17 37.1381C17 37.4816 17.1764 37.7992 17.4671 37.9823L30 45.875" stroke="#0E1726" stroke-width="1.5" stroke-linecap="round"/>
<path d="M30 15C34.3333 17.6218 43 22.9298 43 23.1868C43 23.4342 43 32.262 43 37.1381C43 37.4816 42.8236 37.7992 42.5329 37.9823L30 45.875" stroke="#0E1726" stroke-width="1.5" stroke-linecap="round"/>
<path d="M37.3917 30.3856C37.2596 30.1942 37.0591 30.0985 36.7903 30.0985C36.5214 30.0985 36.3187 30.1942 36.182 30.3856C36.0498 30.5724 35.9837 30.8709 35.9837 31.281C35.9837 31.6911 36.0498 31.9918 36.182 32.1832C36.3187 32.37 36.5214 32.4634 36.7903 32.4634C37.0591 32.4634 37.2596 32.37 37.3917 32.1832C37.5284 31.9918 37.5968 31.6911 37.5968 31.281C37.5968 30.8709 37.5284 30.5724 37.3917 30.3856ZM38.0615 32.6479C37.7608 32.9669 37.337 33.1264 36.7903 33.1264C36.2435 33.1264 35.8174 32.9669 35.5121 32.6479C35.2114 32.3244 35.061 31.8688 35.061 31.281C35.061 30.6932 35.2114 30.2398 35.5121 29.9208C35.8174 29.5973 36.2435 29.4355 36.7903 29.4355C37.337 29.4355 37.7608 29.5973 38.0615 29.9208C38.3668 30.2398 38.5195 30.6932 38.5195 31.281C38.5195 31.8688 38.3668 32.3244 38.0615 32.6479Z" fill="black"/>
<path d="M30.4247 33.058C30.3199 33.058 30.2288 33.0193 30.1514 32.9418C30.0784 32.8644 30.042 32.7732 30.042 32.6684V29.8935C30.042 29.7887 30.0784 29.6976 30.1514 29.6201C30.2288 29.5426 30.3199 29.5039 30.4247 29.5039H30.5204C30.6252 29.5039 30.7141 29.5403 30.787 29.6133C30.8645 29.6862 30.9055 29.775 30.91 29.8798V29.9277C30.91 29.9322 30.9123 29.9345 30.9169 29.9345C30.926 29.9345 30.9305 29.9322 30.9305 29.9277C31.1994 29.5996 31.5024 29.4355 31.8396 29.4355C32.0446 29.4355 32.2086 29.4743 32.3317 29.5517C32.4593 29.6292 32.5709 29.7659 32.6666 29.9618C32.6666 29.9664 32.6711 29.9687 32.6803 29.9687C32.6848 29.9687 32.6894 29.9664 32.6939 29.9618C32.981 29.611 33.3045 29.4355 33.6645 29.4355C34.0427 29.4355 34.3138 29.5381 34.4778 29.7431C34.6464 29.9482 34.7307 30.3013 34.7307 30.8025V32.6684C34.7307 32.7732 34.692 32.8644 34.6145 32.9418C34.5416 33.0193 34.4528 33.058 34.348 33.058H34.2318C34.127 33.058 34.0358 33.0193 33.9584 32.9418C33.8809 32.8644 33.8422 32.7732 33.8422 32.6684V30.9392C33.8422 30.6066 33.8103 30.3879 33.7465 30.2831C33.6827 30.1783 33.5597 30.1259 33.3774 30.1259C33.2589 30.1259 33.1405 30.1805 33.022 30.2899C32.9035 30.3993 32.8443 30.5086 32.8443 30.618V32.6684C32.8443 32.7732 32.8056 32.8644 32.7281 32.9418C32.6506 33.0193 32.5595 33.058 32.4547 33.058H32.3385C32.2337 33.058 32.1426 33.0193 32.0651 32.9418C31.9922 32.8644 31.9558 32.7732 31.9558 32.6684V30.9392C31.9558 30.6111 31.9216 30.3947 31.8532 30.2899C31.7894 30.1805 31.6664 30.1259 31.4842 30.1259C31.3657 30.1259 31.2472 30.1805 31.1287 30.2899C31.0103 30.3993 30.951 30.5086 30.951 30.618V32.6684C30.951 32.7732 30.9123 32.8644 30.8348 32.9418C30.7574 33.0193 30.6662 33.058 30.5614 33.058H30.4247Z" fill="black"/>
<path d="M28.1008 30.0712C27.8684 30.0712 27.6884 30.1373 27.5609 30.2694C27.4378 30.397 27.3604 30.6043 27.3285 30.8914C27.3285 30.9278 27.3467 30.9461 27.3831 30.9461H28.7228C28.7592 30.9461 28.7775 30.9278 28.7775 30.8914C28.7592 30.3446 28.5337 30.0712 28.1008 30.0712ZM28.2717 33.1264C27.6748 33.1264 27.2146 32.9715 26.891 32.6616C26.5721 32.3472 26.4126 31.887 26.4126 31.281C26.4126 30.6795 26.5561 30.2216 26.8432 29.9072C27.1303 29.5927 27.5449 29.4355 28.0871 29.4355C29.0987 29.4355 29.6182 30.0097 29.6455 31.1579C29.6501 31.2673 29.6113 31.3584 29.5293 31.4313C29.4473 31.5042 29.3516 31.5407 29.2422 31.5407H27.3763C27.3353 31.5407 27.3194 31.5612 27.3285 31.6022C27.3604 31.9075 27.4606 32.1308 27.6292 32.272C27.8024 32.4087 28.053 32.4771 28.381 32.4771C28.5861 32.4771 28.8139 32.4429 29.0645 32.3745C29.1465 32.3518 29.2217 32.3654 29.2901 32.4156C29.363 32.4657 29.3994 32.534 29.3994 32.6206C29.3994 32.7254 29.3675 32.8188 29.3038 32.9008C29.2445 32.9783 29.1648 33.0261 29.0645 33.0444C28.8094 33.099 28.5451 33.1264 28.2717 33.1264Z" fill="black"/>
<path d="M23.3666 28.8612V32.265C23.3666 32.2969 23.3848 32.3174 23.4212 32.3265C23.567 32.3493 23.7037 32.3607 23.8313 32.3607C24.3644 32.3607 24.7563 32.2171 25.0069 31.9301C25.2575 31.6384 25.3828 31.16 25.3828 30.4947C25.3828 29.8978 25.2553 29.4604 25.0001 29.1824C24.7449 28.9045 24.3553 28.7655 23.8313 28.7655C23.7037 28.7655 23.567 28.7769 23.4212 28.7997C23.3848 28.8088 23.3666 28.8293 23.3666 28.8612ZM22.8061 33.0783C22.6922 33.0646 22.5988 33.0168 22.5259 32.9348C22.453 32.8482 22.4165 32.748 22.4165 32.634V28.4921C22.4165 28.3782 22.453 28.2802 22.5259 28.1982C22.5988 28.1116 22.6922 28.0615 22.8061 28.0478C23.0977 28.0159 23.4235 28 23.7835 28C24.5946 28 25.2142 28.2119 25.6426 28.6356C26.0754 29.0594 26.2919 29.6791 26.2919 30.4947C26.2919 31.3696 26.0754 32.028 25.6426 32.47C25.2142 32.9074 24.5946 33.1262 23.7835 33.1262C23.4235 33.1262 23.0977 33.1102 22.8061 33.0783Z" fill="black"/>
</svg>
