<svg width="60" height="60" viewBox="0 0 60 60" fill="none" xmlns="http://www.w3.org/2000/svg">
<rect x="0.25" y="0.25" width="59.5" height="59.5" rx="5.75" stroke="#0E1726" stroke-opacity="0.08" stroke-width="0.5"/>
<path d="M42.5 40H17.5C16.1212 40 15 38.8788 15 37.5V22.5C15 21.1212 16.1212 20 17.5 20H42.5C43.8788 20 45 21.1212 45 22.5V37.5C45 38.8788 43.8788 40 42.5 40ZM17.5 21.25C16.8106 21.25 16.25 21.8106 16.25 22.5V37.5C16.25 38.1894 16.8106 38.75 17.5 38.75H42.5C43.1894 38.75 43.75 38.1894 43.75 37.5V22.5C43.75 21.8106 43.1894 21.25 42.5 21.25H17.5Z" fill="#0E1726"/>
<path d="M30.0001 33.2445L19.0358 26.1501C18.8965 26.0601 18.7987 25.9185 18.7639 25.7564C18.7291 25.5943 18.7601 25.425 18.8501 25.2858C18.9401 25.1465 19.0818 25.0487 19.2439 25.0139C19.406 24.9791 19.5753 25.0101 19.7145 25.1001L30.0001 31.7558L40.2858 25.1001C40.425 25.0101 40.5943 24.9791 40.7564 25.0139C40.9185 25.0487 41.0601 25.1465 41.1501 25.2858C41.2401 25.425 41.2712 25.5943 41.2363 25.7564C41.2015 25.9185 41.1038 26.0601 40.9645 26.1501L30.0001 33.2445ZM18.7508 36.2501C18.6166 36.2503 18.4859 36.2073 18.378 36.1274C18.2702 36.0475 18.1909 35.9351 18.1519 35.8066C18.113 35.6782 18.1164 35.5407 18.1616 35.4143C18.2069 35.288 18.2916 35.1796 18.4033 35.1051L24.0283 31.3551C24.0966 31.3096 24.1731 31.2779 24.2537 31.262C24.3342 31.246 24.4171 31.2461 24.4976 31.2622C24.5781 31.2782 24.6546 31.31 24.7228 31.3557C24.791 31.4013 24.8496 31.46 24.8951 31.5283C24.9407 31.5966 24.9723 31.6731 24.9883 31.7537C25.0043 31.8342 25.0042 31.9171 24.9881 31.9976C24.972 32.0781 24.9403 32.1546 24.8946 32.2228C24.8489 32.291 24.7903 32.3496 24.722 32.3951L19.097 36.1451C18.9944 36.2134 18.874 36.2499 18.7508 36.2501ZM41.2495 36.2501C41.1308 36.2501 41.0101 36.2158 40.9033 36.1451L35.2783 32.3951C35.21 32.3496 35.1513 32.291 35.1057 32.2228C35.06 32.1546 35.0282 32.0781 35.0122 31.9976C34.9961 31.9171 34.996 31.8342 35.012 31.7537C35.0279 31.6731 35.0596 31.5966 35.1051 31.5283C35.1507 31.46 35.2092 31.4013 35.2775 31.3557C35.3457 31.31 35.4222 31.2782 35.5027 31.2622C35.5832 31.2461 35.6661 31.246 35.7466 31.262C35.8271 31.2779 35.9037 31.3096 35.972 31.3551L41.597 35.1051C41.7087 35.1796 41.7934 35.288 41.8387 35.4143C41.8839 35.5407 41.8873 35.6782 41.8483 35.8066C41.8094 35.9351 41.7301 36.0475 41.6223 36.1274C41.5144 36.2073 41.3837 36.2503 41.2495 36.2501Z" fill="#0E1726"/>
</svg>
