<svg width="36" height="44" viewBox="0 0 36 44" fill="none" xmlns="http://www.w3.org/2000/svg">
<path d="M16.0979 14.5486C15.655 14.1075 15.4813 13.6132 15.5747 13.1321C15.6526 12.787 15.8326 12.4744 16.0904 12.2366C16.2984 12.048 16.4597 11.8122 16.5613 11.5483C16.6902 11.168 16.5893 10.7783 16.2549 10.3409C16.068 10.0868 15.9135 9.80948 15.7952 9.51576C15.457 8.71719 14.9543 8.46431 14.0929 8.7324C13.1941 9.0119 12.3682 8.5936 12.1907 7.7437C11.9683 6.67324 11.3909 6.35191 10.408 6.49261C10.3238 6.5043 10.2389 6.51128 10.1539 6.51353C10.0689 6.51144 9.98405 6.50445 9.89979 6.49261C8.91692 6.35191 8.33952 6.67324 8.11716 7.7437C7.93965 8.5936 7.11186 9.0119 6.21307 8.7324C5.35353 8.46431 4.84901 8.71719 4.51267 9.51576C4.39359 9.80912 4.23918 10.0863 4.05299 10.3409C3.71852 10.7783 3.61761 11.1642 3.74655 11.5483C3.84735 11.8122 4.00806 12.048 4.21556 12.2366C4.47444 12.4736 4.65464 12.7865 4.73129 13.1321C4.82472 13.6132 4.65281 14.1075 4.20995 14.5486C3.7671 14.9897 3.59706 15.4347 3.74841 15.8967C3.82241 16.0941 3.92784 16.2779 4.06047 16.4405C4.23325 16.6652 4.37299 16.9144 4.47529 17.1801C4.82659 18.0908 5.40958 18.3038 6.32519 18.0148C6.50857 17.9487 6.70368 17.9232 6.89752 17.9399C7.09136 17.9565 7.27949 18.015 7.44938 18.1114C7.61927 18.2079 7.76702 18.34 7.88281 18.4991C7.9986 18.6581 8.07977 18.8404 8.1209 19.0339C8.12017 19.0383 8.12017 19.0428 8.1209 19.0472C8.13585 19.129 8.15267 19.2031 8.17322 19.2754C8.42361 20.1747 9.01782 20.3915 9.9054 20.2812C9.98575 20.2717 10.0661 20.2641 10.1502 20.2603C10.2343 20.2565 10.3127 20.2717 10.395 20.2812C11.2825 20.3915 11.8768 20.1747 12.1253 19.2754C12.1479 19.2005 12.166 19.1243 12.1795 19.0472C12.1803 19.0428 12.1803 19.0383 12.1795 19.0339C12.2208 18.8404 12.3022 18.658 12.4182 18.499C12.5342 18.3399 12.6821 18.2078 12.8521 18.1114C13.0222 18.015 13.2104 17.9565 13.4044 17.9398C13.5983 17.9232 13.7935 17.9487 13.977 18.0148C14.887 18.3038 15.4719 18.0908 15.8251 17.1801C15.9288 16.9147 16.0691 16.6656 16.2418 16.4405C16.3746 16.2759 16.4789 16.0894 16.5501 15.8891C16.7108 15.4347 16.5594 15.0088 16.0979 14.5486ZM14.8347 15.0069C15.2084 15.4213 15.2477 15.7237 14.9674 16.2256C14.6871 16.7276 14.3881 16.8474 13.8462 16.7105C12.8839 16.469 11.4171 17.3132 11.1312 18.2696C10.9686 18.8076 10.7444 19.0643 10.1521 19.0757C9.55971 19.0871 9.33361 18.8076 9.17291 18.2696C8.88141 17.3189 7.42018 16.469 6.45599 16.7105C5.91784 16.8474 5.62634 16.7409 5.33484 16.2256C5.04334 15.7104 5.08819 15.4213 5.46938 15.0069C6.2056 14.2045 6.2 12.5712 5.4563 11.7632C5.06577 11.3392 5.07324 11.0311 5.34418 10.5425C5.61513 10.0538 5.90476 9.93976 6.45412 10.0786C7.42952 10.3238 8.86086 9.46442 9.17665 8.49854C9.33361 8.01369 9.49991 7.69427 10.1203 7.69807H10.1801C10.8005 7.69807 10.9668 8.01369 11.1237 8.49854C11.4395 9.46442 12.8708 10.3238 13.8444 10.0786C14.3881 9.93976 14.6703 10.0253 14.9562 10.5425C15.2421 11.0597 15.2346 11.3392 14.8441 11.7632C14.1022 12.5712 14.0985 14.2045 14.8347 15.0069Z" fill="#0E1726"/>
<path d="M10.0648 11.0769H10.0138C9.29236 11.1392 8.62166 11.4603 8.1347 11.9763C7.64773 12.4924 7.38008 13.1657 7.38483 13.8629C7.38958 14.56 7.66639 15.2299 8.16035 15.7398C8.65431 16.2496 9.32933 16.5622 10.0515 16.6154H10.0648C10.4426 16.6151 10.8165 16.5428 11.165 16.4028C11.5136 16.2627 11.8298 16.0575 12.0955 15.7992C12.3613 15.5408 12.5712 15.2344 12.7133 14.8975C12.8553 14.5606 12.9266 14.2 12.9231 13.8365C12.9179 13.1076 12.6154 12.4099 12.0807 11.8937C11.5461 11.3775 10.8221 11.0842 10.0648 11.0769ZM10.0826 15.1725H10.0648C9.19648 15.1725 8.68567 14.6723 8.67235 13.875C8.65902 13.0777 9.15428 12.5497 10.036 12.5326H10.0648C10.9288 12.5326 11.3463 13.0413 11.4818 13.8344C11.3774 14.6231 10.9598 15.1383 10.0826 15.1639V15.1725Z" fill="#0E1726"/>
<path d="M10.1577 0C10.2589 0 10.3586 0.0214166 10.4502 0.0624425L10.489 0.0812124L10.5264 0.102212C10.6054 0.149929 10.6738 0.212911 10.728 0.287124L10.7282 0.286938C10.8326 0.429725 11.7858 1.66499 13.3433 2.93368C14.8812 4.18637 16.9535 5.42684 19.3384 5.73783L19.4521 5.75195L19.4609 5.75288L19.4696 5.75418C19.6703 5.78292 19.8551 5.87603 19.995 6.01826L20.0222 6.04744L20.0483 6.07773C20.173 6.22947 20.2433 6.41721 20.248 6.61221H20.2482C20.2658 7.25119 20.3236 9.36831 20.3035 11.4775C20.2934 12.531 20.2639 13.5925 20.1989 14.4709C20.1664 14.9095 20.1245 15.3123 20.0697 15.6504C20.0231 15.9378 19.9596 16.2291 19.8608 16.4612C19.8574 16.4751 19.8538 16.491 19.8492 16.5084C19.8305 16.5801 19.8022 16.6808 19.7621 16.8061C19.6821 17.0566 19.555 17.4066 19.3624 17.8204C18.9774 18.6476 18.3283 19.7366 17.2682 20.7969H17.268C15.4428 22.6214 11.4684 25.9506 10.7316 26.5657L10.7265 26.5702L10.7211 26.5743C10.5641 26.7002 10.367 26.7692 10.1636 26.7692C9.96016 26.7692 9.76311 26.7002 9.60603 26.5743L9.60165 26.5709L9.59745 26.5674C8.85211 25.95 4.87882 22.6218 3.05321 20.7969V20.7967C1.99063 19.7368 1.33911 18.6483 0.952399 17.8214C0.75888 17.4075 0.630831 17.0577 0.550339 16.8072C0.510068 16.6819 0.481577 16.5812 0.462686 16.5095C0.458069 16.492 0.454382 16.4761 0.450872 16.4621C0.351518 16.2299 0.287486 15.9386 0.240505 15.6513C0.18522 15.3132 0.142952 14.9105 0.110169 14.472C0.044521 13.5938 0.0144002 12.5327 0.00422365 11.4794C-0.0161485 9.3707 0.0426952 7.25417 0.0632941 6.61128H0.0634846C0.0701518 6.39658 0.155788 6.1913 0.305102 6.03332L0.333875 6.00433C0.478677 5.86437 0.667567 5.77536 0.870654 5.75195C3.29828 5.4654 5.40863 4.20484 6.96977 2.93182C8.52453 1.664 9.47972 0.428735 9.59345 0.278389V0.278575C9.65518 0.196688 9.73477 0.129222 9.82649 0.0812124L9.86518 0.0624425C9.95688 0.0213359 10.0567 3.76822e-06 10.1577 0ZM10.1558 1.72163C9.67039 2.27805 8.88151 3.10929 7.84592 3.95376C6.26016 5.24685 4.04579 6.61231 1.4181 7.0218C1.39338 7.90271 1.35292 9.68968 1.37008 11.4667C1.38015 12.5089 1.40983 13.538 1.47241 14.3751C1.50374 14.7942 1.54264 15.1555 1.58941 15.4415C1.63915 15.7457 1.68887 15.9051 1.71631 15.9607L1.75271 16.0343L1.76929 16.112L1.76948 16.1129C1.76984 16.1145 1.7705 16.118 1.77176 16.1233C1.77433 16.1341 1.77882 16.1525 1.78548 16.1778C1.79882 16.2284 1.82092 16.3068 1.8537 16.4088C1.9193 16.613 2.02774 16.9107 2.19517 17.2687C2.51985 17.963 3.06379 18.8783 3.94403 19.779L4.03035 19.8662L4.03092 19.8667C5.62507 21.4603 8.95759 24.2789 10.1628 25.2862C11.3667 24.2764 14.6965 21.46 16.2903 19.8667L16.3763 19.7798C17.2537 18.8792 17.7955 17.9641 18.1187 17.2698C18.2853 16.9118 18.3928 16.6141 18.458 16.4099C18.4906 16.3079 18.5126 16.2295 18.5259 16.1789C18.5324 16.1537 18.5368 16.1355 18.5394 16.1246C18.5405 16.12 18.5413 16.1166 18.5417 16.1148L18.5584 16.0356L18.5945 15.9624C18.6218 15.9066 18.6712 15.7468 18.7206 15.4422C18.767 15.1559 18.8056 14.7943 18.8366 14.375C18.8986 13.5373 18.9279 12.5078 18.9378 11.4653C18.9548 9.689 18.9152 7.9032 18.8925 7.02013C16.2659 6.60933 14.0527 5.24723 12.4677 3.95618C11.4318 3.11233 10.6423 2.2809 10.1558 1.72163ZM18.5419 16.1141C18.5418 16.1143 18.5417 16.1145 18.5417 16.1148V16.1144C18.5417 16.1142 18.5418 16.114 18.5419 16.1139V16.1141ZM10.6864 1.07695C10.6877 1.07536 10.6888 1.07371 10.6901 1.07211C10.6889 1.07366 10.6877 1.07528 10.6864 1.07695Z" fill="#0E1726"/>
<path d="M5.14343 42.0493H11.4721V32.7198H5.14343V42.0493ZM12.9232 42.2534C12.9231 42.8781 12.3726 43.3845 11.6938 43.3845H4.92156C4.24273 43.3845 3.69244 42.8781 3.69238 42.2534V32.5156C3.69242 31.8909 4.24272 31.3846 4.92156 31.3845H11.6938C12.3726 31.3845 12.9231 31.8909 12.9232 32.5156V42.2534Z" fill="#0E1726"/>
<path d="M16.9983 42.0199H22.6941V25.3647H16.9983V42.0199ZM24.0001 42.094C24.0001 42.8068 23.4471 43.3846 22.765 43.3846H16.9275C16.2454 43.3846 15.6924 42.8068 15.6924 42.094V25.2906C15.6924 24.5779 16.2454 24 16.9275 24H22.765C23.4471 24 24.0001 24.5779 24.0001 25.2906V42.094Z" fill="black"/>
<path d="M16.9983 42.0199H22.6941V25.3647H16.9983V42.0199ZM24.0001 42.094C24.0001 42.8068 23.4471 43.3846 22.765 43.3846H16.9275C16.2454 43.3846 15.6924 42.8068 15.6924 42.094V25.2906C15.6924 24.5779 16.2454 24 16.9275 24H22.765C23.4471 24 24.0001 24.5779 24.0001 25.2906V42.094Z" fill="#0E1726"/>
<path d="M34.6941 14.3759C34.6941 14.3254 34.6547 14.2845 34.6063 14.2845H29.086C29.0376 14.2846 28.9984 14.3255 28.9983 14.3759V41.9318C28.9984 41.9823 29.0376 42.0232 29.086 42.0232H34.6063C34.6547 42.0232 34.6941 41.9823 34.6941 41.9318V14.3759ZM36.0001 41.9318C36 42.7342 35.376 43.3846 34.6063 43.3846H29.086C28.3163 43.3846 27.6924 42.7342 27.6924 41.9318V14.3759C27.6924 13.5736 28.3163 12.9231 29.086 12.9231H34.6063C35.376 12.9231 36 13.5735 36.0001 14.3759V41.9318Z" fill="#0E1726"/>
</svg>
