<svg width="34" height="39" viewBox="0 0 34 39" fill="none" xmlns="http://www.w3.org/2000/svg">
<path d="M27.7902 12.51C28.5483 10.4272 29.0389 8.25647 29.2501 6.05002C29.3101 5.41002 29.2501 5.30002 28.6801 5.05002L18.3602 0.380005C18.1002 0.270005 17.8602 0.13001 17.6102 0.0100098H17.2101C17.176 0.0429596 17.1392 0.0730563 17.1002 0.100006L6.03015 5.10001C5.61015 5.29001 5.51015 5.43003 5.56015 5.87003C5.62015 6.49003 5.68015 7.11001 5.78015 7.73001C6.18713 10.1966 6.93072 12.5957 7.99014 14.86C9.9426 19.1317 13.0625 22.7646 16.9901 25.34C17.1075 25.4394 17.2564 25.4939 17.4102 25.4939C17.564 25.4939 17.7128 25.4394 17.8302 25.34C18.8302 24.6 19.8302 23.92 20.7002 23.13C23.9354 20.2568 26.377 16.5996 27.7902 12.51ZM17.5802 24.17C17.5356 24.2122 17.4765 24.2357 17.4152 24.2357C17.3538 24.2357 17.2947 24.2122 17.2501 24.17C13.7141 21.7576 10.8921 18.4382 9.08017 14.56C8.03714 12.3617 7.30348 10.0295 6.90014 7.63C6.82014 7.19 6.79014 6.74001 6.71014 6.29001C6.69961 6.2493 6.69723 6.20692 6.70309 6.16528C6.70895 6.12364 6.72296 6.08358 6.74432 6.04736C6.76568 6.01114 6.79397 5.97947 6.82757 5.95419C6.86117 5.92891 6.89943 5.91051 6.94015 5.90002L11.6702 3.76001L17.2302 1.26001C17.3554 1.21044 17.4949 1.21044 17.6201 1.26001L27.9202 5.91C28.1202 6 28.1401 6.11002 28.1201 6.21002C27.9127 8.07214 27.5036 9.90623 26.9001 11.68C25.9669 14.4822 24.5487 17.0986 22.7101 19.41C21.2435 21.2403 19.5149 22.8442 17.5802 24.17Z" fill="#161616"/>
<path d="M10.66 32.84C8.89335 30.9133 7.12001 28.9899 5.34001 27.0699C4.65655 26.3498 4.16486 25.4695 3.91002 24.5099C3.38002 22.4399 2.91002 20.37 2.35002 18.31C2.27002 17.99 2.19002 17.6799 2.13002 17.3599C2.10524 17.2527 2.12255 17.14 2.17836 17.0452C2.23417 16.9503 2.32423 16.8804 2.43001 16.8499C2.53528 16.8196 2.64788 16.8269 2.74831 16.8708C2.84873 16.9146 2.9307 16.9921 2.98003 17.09L3.09001 17.3499L5.56001 23.2899C5.58208 23.3689 5.62064 23.4423 5.67314 23.5053C5.72564 23.5682 5.7909 23.6194 5.86461 23.6553C5.93831 23.6912 6.01877 23.7111 6.10072 23.7136C6.18267 23.7161 6.26423 23.7012 6.34001 23.6699C6.41227 23.6375 6.4768 23.59 6.52937 23.5308C6.58194 23.4715 6.62135 23.4018 6.64497 23.3262C6.6686 23.2506 6.67593 23.1708 6.66646 23.0922C6.65698 23.0135 6.63092 22.9378 6.59001 22.87C5.73668 20.81 4.88 18.7499 4.02 16.6899C3.87236 16.3071 3.57891 15.9983 3.20399 15.8315C2.82908 15.6647 2.40328 15.6533 2.02 15.8C1.64244 15.9325 1.32924 16.2034 1.14363 16.5579C0.958023 16.9124 0.913835 17.3241 1.02 17.71C1.55 19.86 2.10001 22 2.62001 24.15C2.90147 25.5044 3.53628 26.7602 4.46001 27.7899L9.69002 33.46C9.88452 33.6531 10.0373 33.8841 10.1387 34.1387C10.2402 34.3933 10.2883 34.666 10.28 34.9399C10.28 35.6999 10.28 36.4599 10.28 37.2199C10.2557 37.3767 10.2824 37.5372 10.3562 37.6776C10.4301 37.8181 10.5471 37.9311 10.69 38H11.04C11.1456 37.9358 11.2337 37.8466 11.2966 37.7401C11.3594 37.6337 11.3949 37.5134 11.4 37.3899C11.4 36.4999 11.4 35.6099 11.4 34.7199C11.3969 34.0228 11.1329 33.3522 10.66 32.84Z" fill="#161616"/>
<path d="M32.77 15.8C32.3866 15.6561 31.9619 15.6688 31.5877 15.8353C31.2135 16.0018 30.9198 16.3088 30.77 16.69C29.91 18.75 29.0534 20.81 28.2 22.87C28.1591 22.9378 28.1331 23.0136 28.1236 23.0922C28.1141 23.1709 28.1215 23.2506 28.1451 23.3263C28.1687 23.4019 28.2081 23.4716 28.2607 23.5308C28.3132 23.5901 28.3778 23.6375 28.45 23.67C28.5258 23.7013 28.6074 23.7162 28.6893 23.7136C28.7713 23.7111 28.8517 23.6912 28.9254 23.6553C28.9992 23.6194 29.0644 23.5683 29.1169 23.5053C29.1694 23.4424 29.208 23.369 29.23 23.29C29.85 21.79 30.47 20.29 31.1 18.8C31.33 18.24 31.55 17.69 31.79 17.14C31.8289 17.0272 31.91 16.9339 32.0164 16.8797C32.1227 16.8256 32.246 16.815 32.36 16.85C32.4697 16.8907 32.5607 16.9701 32.6159 17.0733C32.6712 17.1764 32.6869 17.2961 32.66 17.41V17.56C32.14 19.62 31.61 21.67 31.12 23.73C30.8585 25.0168 30.2538 26.2089 29.37 27.18C27.66 29.01 25.97 30.87 24.26 32.7C23.9718 32.9957 23.7463 33.3465 23.5968 33.7313C23.4473 34.1162 23.377 34.5273 23.39 34.94C23.39 35.68 23.39 36.43 23.39 37.17C23.3646 37.3283 23.385 37.4906 23.4488 37.6376C23.5126 37.7847 23.6171 37.9104 23.75 38H24.1C24.243 37.9311 24.36 37.8181 24.4338 37.6777C24.5076 37.5373 24.5344 37.3768 24.51 37.22C24.51 36.43 24.51 35.64 24.51 34.84C24.5165 34.3465 24.7053 33.8727 25.04 33.51L30.32 27.8C31.1533 26.9105 31.7454 25.8227 32.04 24.64C32.62 22.33 33.19 20.02 33.77 17.71C33.8762 17.3242 33.832 16.9125 33.6464 16.5579C33.4608 16.2034 33.1476 15.9326 32.77 15.8Z" fill="#161616"/>
<path d="M14.2 27.37C12.78 26.24 11.32 25.18 9.87001 24.11C9.53271 23.8543 9.11532 23.7271 8.69274 23.7513C8.27015 23.7756 7.87002 23.9496 7.56417 24.2422C7.25831 24.5349 7.06673 24.9269 7.02382 25.348C6.98091 25.7691 7.08949 26.1917 7.33003 26.54C7.53003 26.85 7.76003 27.15 7.98003 27.46C8.58003 28.3 9.18004 29.15 9.80004 29.99C9.84183 30.0646 9.90073 30.1282 9.97191 30.1756C10.0431 30.2229 10.1245 30.2527 10.2095 30.2625C10.2944 30.2722 10.3805 30.2617 10.4605 30.2317C10.5406 30.2017 10.6124 30.1532 10.67 30.09C10.7615 29.9845 10.8118 29.8496 10.8118 29.71C10.8118 29.5704 10.7615 29.4354 10.67 29.33C10.28 28.77 9.87002 28.21 9.47002 27.65L8.24001 25.92C8.15963 25.8115 8.11626 25.68 8.11626 25.545C8.11626 25.4099 8.15963 25.2785 8.24001 25.17C8.30447 25.052 8.40611 24.9587 8.52907 24.9044C8.65204 24.8502 8.78947 24.8381 8.92003 24.87C9.07145 24.9191 9.21344 24.9935 9.34001 25.09L13.27 28.04C13.8532 28.4481 14.3246 28.9962 14.6409 29.634C14.9571 30.2717 15.1082 30.9787 15.08 31.69C15.08 33.53 15.08 35.37 15.08 37.21C15.0588 37.3667 15.0856 37.5261 15.1571 37.6672C15.2285 37.8083 15.3411 37.9244 15.48 38H15.83C15.9453 37.9359 16.0408 37.8414 16.106 37.7268C16.1713 37.6122 16.2038 37.4818 16.2 37.35C16.2 35.35 16.2 33.43 16.2 31.48C16.2117 30.6862 16.0369 29.9007 15.6895 29.1868C15.3421 28.4729 14.8319 27.8506 14.2 27.37Z" fill="#161616"/>
<path d="M26.5001 25.05C26.6177 25.1605 26.6899 25.3107 26.7029 25.4715C26.7158 25.6323 26.6685 25.7922 26.5701 25.92L26.1401 26.53L24.1401 29.33C24.0833 29.387 24.0394 29.4555 24.0114 29.5309C23.9834 29.6063 23.972 29.6869 23.978 29.7671C23.9839 29.8473 24.0071 29.9253 24.0459 29.9958C24.0847 30.0663 24.1383 30.1275 24.2029 30.1755C24.2675 30.2234 24.3417 30.2568 24.4204 30.2735C24.4991 30.2901 24.5805 30.2897 24.659 30.2721C24.7375 30.2545 24.8112 30.2202 24.8753 30.1715C24.9393 30.1228 24.9921 30.0609 25.0301 29.99L25.3901 29.49C26.1101 28.49 26.8401 27.49 27.5301 26.49C27.6587 26.2947 27.7469 26.0755 27.7894 25.8456C27.8318 25.6156 27.8278 25.3794 27.7775 25.151C27.7271 24.9226 27.6315 24.7066 27.4963 24.5158C27.361 24.325 27.1889 24.1632 26.9901 24.04C26.6635 23.8334 26.2791 23.7374 25.8937 23.7662C25.5083 23.7951 25.1424 23.9471 24.8501 24.2C23.6201 25.12 22.4201 26.06 21.1701 26.95C20.3329 27.4989 19.6565 28.2603 19.2102 29.1564C18.7639 30.0525 18.5637 31.0511 18.6301 32.05C18.6301 33.76 18.6301 35.48 18.6301 37.19C18.6067 37.3503 18.6301 37.5139 18.6975 37.6611C18.765 37.8084 18.8735 37.933 19.0101 38.02H19.3601C19.499 37.9444 19.6117 37.8284 19.6831 37.6873C19.7545 37.5462 19.7814 37.3867 19.7601 37.23C19.7601 35.3367 19.7601 33.4467 19.7601 31.56C19.7394 30.9399 19.8632 30.3234 20.1218 29.7593C20.3804 29.1952 20.7667 28.6991 21.2501 28.31C22.6701 27.18 24.1501 26.11 25.6201 25.02C25.7438 24.9137 25.903 24.8578 26.066 24.8633C26.229 24.8689 26.384 24.9355 26.5001 25.05Z" fill="#161616"/>
<path d="M25.6598 11.44C25.685 11.3731 25.6963 11.3019 25.6933 11.2305C25.6902 11.1591 25.6727 11.0891 25.6419 11.0247C25.6111 10.9602 25.5675 10.9027 25.5139 10.8555C25.4603 10.8083 25.3977 10.7724 25.3298 10.75C25.1957 10.7006 25.0477 10.7054 24.917 10.7632C24.7863 10.8211 24.6833 10.9275 24.6298 11.06C24.5938 11.1342 24.5637 11.2111 24.5398 11.29C23.2053 15.1565 20.8193 18.5745 17.6498 21.16C17.6207 21.1956 17.5841 21.2242 17.5426 21.2439C17.5011 21.2636 17.4557 21.2738 17.4098 21.2738C17.3639 21.2738 17.3185 21.2636 17.277 21.2439C17.2355 21.2242 17.1989 21.1956 17.1698 21.16C15.4159 19.7377 13.8943 18.0508 12.6598 16.16C11.0092 13.5963 9.87157 10.7369 9.30979 7.74002C9.30979 7.53002 9.30978 7.44001 9.51978 7.35001L17.2598 3.87003C17.3697 3.83031 17.4899 3.83031 17.5998 3.87003L21.8998 5.81003C23.0198 6.31003 24.1298 6.81001 25.2498 7.32001C25.4998 7.42001 25.5698 7.54002 25.4898 7.80002C25.4098 8.06002 25.3498 8.43003 25.2898 8.75003C25.272 8.82097 25.2685 8.89473 25.2795 8.96704C25.2906 9.03935 25.3159 9.10872 25.3541 9.17111C25.3922 9.2335 25.4425 9.28765 25.5019 9.33038C25.5612 9.37312 25.6285 9.4036 25.6998 9.42001C25.7734 9.43757 25.8499 9.44003 25.9245 9.42722C25.9991 9.4144 26.0703 9.38659 26.1339 9.34546C26.1974 9.30433 26.252 9.25074 26.2943 9.18793C26.3365 9.12512 26.3656 9.05438 26.3798 8.98001C26.4898 8.47001 26.5898 7.98 26.6798 7.44C26.7698 6.9 26.6798 6.76003 26.1898 6.53003L17.7998 2.73001C17.6783 2.67079 17.5449 2.64001 17.4098 2.64001C17.2746 2.64001 17.1413 2.67079 17.0198 2.73001C15.6398 3.37001 14.2598 3.98002 12.8798 4.61002L8.48978 6.61002C8.37313 6.652 8.27268 6.72968 8.20267 6.832C8.13266 6.93432 8.09667 7.05609 8.0998 7.18002C8.0998 7.18002 8.0998 7.28003 8.0998 7.34003C8.32302 8.76969 8.67786 10.1756 9.15979 11.54C10.6008 15.8283 13.2803 19.5935 16.8598 22.36C17.3198 22.71 17.4698 22.71 17.9298 22.36C20.9138 20.0472 23.2777 17.0305 24.8098 13.58C25.1398 12.86 25.3998 12.11 25.6598 11.44Z" fill="#161616"/>
<path d="M15.2601 13.26L14.0101 15.11C13.9305 15.2094 13.8872 15.3328 13.8872 15.46C13.8872 15.5873 13.9305 15.7107 14.0101 15.81C14.0746 15.9039 14.1693 15.9729 14.2784 16.0056C14.3875 16.0384 14.5045 16.0329 14.6101 15.99C14.7506 15.9217 14.8711 15.8184 14.9601 15.69C15.4601 14.99 15.9601 14.27 16.4401 13.56C16.7601 13.11 17.0801 12.65 17.4401 12.15L18.5901 13.82L19.9501 15.77C20.0162 15.8712 20.1133 15.9483 20.2268 15.9898C20.3404 16.0312 20.4643 16.0348 20.5801 16.0001C20.6868 15.9719 20.7816 15.9099 20.8501 15.8234C20.9186 15.7368 20.9572 15.6304 20.9601 15.52C20.9481 15.3553 20.8929 15.1967 20.8001 15.06C19.9601 13.82 19.1001 12.59 18.2401 11.36C18.1951 11.3089 18.1703 11.2431 18.1703 11.175C18.1703 11.1069 18.1951 11.0412 18.2401 10.99C18.7001 10.35 19.1401 9.69003 19.5901 9.04003C19.729 8.86741 19.8136 8.65746 19.8332 8.43673C19.8528 8.216 19.8065 7.99442 19.7001 7.80004C19.5979 7.60229 19.4405 7.43844 19.247 7.32839C19.0535 7.21834 18.8323 7.16681 18.6101 7.18004H16.2801C16.0544 7.1618 15.8284 7.20997 15.6298 7.31862C15.4312 7.42728 15.2688 7.59167 15.1624 7.79152C15.0561 7.99138 15.0106 8.21798 15.0315 8.44338C15.0524 8.66878 15.1388 8.88315 15.2801 9.06005C15.7301 9.70005 16.1701 10.36 16.6301 11.01C16.6716 11.0529 16.6948 11.1103 16.6948 11.17C16.6948 11.2298 16.6716 11.2871 16.6301 11.33C16.1601 11.94 15.7101 12.6 15.2601 13.26ZM16.1001 8.26003H18.7101L17.4101 10.15C16.9701 9.51005 16.5501 8.91004 16.1001 8.27004V8.26003Z" fill="#161616"/>
</svg>
