<svg width="37" height="35" viewBox="0 0 37 35" fill="none" xmlns="http://www.w3.org/2000/svg">
<g clip-path="url(#clip0_241_22)">
<path d="M37 11.34C36.9032 10.947 36.6679 10.6021 36.3372 10.3688C36.0065 10.1355 35.6027 10.0294 35.2 10.07H31.7999C31.556 10.0484 31.3102 10.0807 31.0801 10.1647C30.85 10.2487 30.6412 10.3822 30.4685 10.5559C30.2958 10.7296 30.1634 10.9391 30.0807 11.1697C29.998 11.4002 29.967 11.6462 29.99 11.89V27.04C29.9798 27.1297 29.9798 27.2203 29.99 27.31C29.99 27.4506 30.0458 27.5854 30.1452 27.6848C30.2446 27.7842 30.3794 27.84 30.52 27.84C30.6605 27.84 30.7953 27.7842 30.8947 27.6848C30.9941 27.5854 31.0499 27.4506 31.0499 27.31C31.0499 27.2 31.0499 27.09 31.0499 26.98V11.89C31.0499 11.35 31.25 11.14 31.79 11.14H35.21C35.74 11.14 35.94 11.35 35.94 11.87C35.94 18.81 35.94 25.7567 35.94 32.71C35.94 33.22 35.74 33.43 35.23 33.43H31.78C31.25 33.43 31.0499 33.23 31.0499 32.68V29.46C31.0653 29.3804 31.0629 29.2984 31.0429 29.2198C31.0229 29.1413 30.9858 29.0681 30.9342 29.0056C30.8826 28.943 30.8178 28.8927 30.7444 28.8581C30.6711 28.8235 30.591 28.8056 30.51 28.8056C30.4289 28.8056 30.3488 28.8235 30.2755 28.8581C30.2021 28.8927 30.1373 28.943 30.0857 29.0056C30.0341 29.0681 29.997 29.1413 29.977 29.2198C29.957 29.2984 29.9546 29.3804 29.97 29.46C29.97 30.59 29.97 31.72 29.97 32.86C29.9686 33.0796 30.0113 33.2973 30.0956 33.5001C30.1799 33.7029 30.3041 33.8867 30.4608 34.0406C30.6175 34.1945 30.8035 34.3153 31.0077 34.3959C31.212 34.4766 31.4304 34.5154 31.65 34.51H35.35C35.7151 34.5178 36.0722 34.4028 36.3642 34.1834C36.6561 33.964 36.8659 33.6529 36.96 33.3C36.96 33.25 37.01 33.21 37.03 33.17V11.43C37.0165 11.4013 37.0064 11.3711 37 11.34Z" fill="#161616"/>
<path d="M5.38 21.49C4.15 21.49 2.91999 21.49 1.67999 21.49C1.31487 21.4822 0.957716 21.5972 0.665771 21.8166C0.373827 22.036 0.164025 22.3471 0.0700073 22.7C0.0700073 22.75 0.02 22.79 0 22.83V33.18C0.0257979 33.2132 0.0460569 33.2503 0.0599976 33.29C0.159795 33.6594 0.382705 33.9836 0.691833 34.2091C1.00096 34.4346 1.3778 34.5478 1.76001 34.53H5.35001C5.57472 34.5368 5.79846 34.4979 6.00769 34.4156C6.21692 34.3334 6.40727 34.2095 6.56717 34.0514C6.72707 33.8934 6.85321 33.7045 6.93793 33.4963C7.02265 33.288 7.06416 33.0648 7.06 32.84C7.06 29.62 7.06 26.3967 7.06 23.17C7.06407 22.9483 7.02339 22.728 6.9404 22.5223C6.85741 22.3166 6.73382 22.1298 6.577 21.973C6.42018 21.8162 6.23335 21.6926 6.02768 21.6096C5.82201 21.5266 5.60175 21.4859 5.38 21.49ZM5.98001 32.74C5.98001 33.23 5.75999 33.44 5.26999 33.44H1.79999C1.28999 33.44 1.09 33.23 1.09 32.73C1.09 31.15 1.09 29.58 1.09 28.01C1.09 26.44 1.09 24.86 1.09 23.28C1.09 22.78 1.29999 22.57 1.79999 22.57H5.26999C5.75999 22.57 5.98001 22.79 5.98001 23.27V32.74Z" fill="#161616"/>
<path d="M20.18 12.4C20.3206 13.2832 20.8062 14.0743 21.5301 14.5994C22.254 15.1245 23.1569 15.3405 24.0401 15.2C24.9232 15.0594 25.7144 14.5738 26.2395 13.8499C26.7646 13.126 26.9806 12.2232 26.84 11.34C26.8352 11.2903 26.8417 11.2403 26.8591 11.1935C26.8764 11.1467 26.9041 11.1045 26.9401 11.07C28.6801 9.58996 30.43 8.12997 32.18 6.66997C32.2219 6.64107 32.2691 6.62086 32.319 6.61055C32.3688 6.60025 32.4202 6.60005 32.4701 6.60997C33.167 6.8268 33.9153 6.81222 34.6033 6.56841C35.2912 6.3246 35.8817 5.86467 36.2866 5.25737C36.6914 4.65008 36.8888 3.92805 36.8492 3.19927C36.8096 2.47048 36.5352 1.7741 36.067 1.21422C35.5988 0.654344 34.9619 0.261059 34.2516 0.0931882C33.5413 -0.0746825 32.7957 -0.00814185 32.1264 0.282885C31.4571 0.573913 30.8999 1.07379 30.5383 1.70775C30.1766 2.34171 30.0299 3.0757 30.12 3.79998C30.1236 3.8504 30.1156 3.90096 30.0965 3.94777C30.0774 3.99459 30.0478 4.03639 30.0101 4.06996L24.7901 8.45998C24.7454 8.49104 24.6948 8.51242 24.6414 8.52275C24.588 8.53309 24.5331 8.53214 24.4801 8.51998C24.015 8.38335 23.5264 8.34568 23.0459 8.40941C22.5653 8.47314 22.1035 8.63684 21.6901 8.88997C21.6378 8.9117 21.5817 8.9229 21.525 8.9229C21.4684 8.9229 21.4123 8.9117 21.36 8.88997C19.91 8.23997 18.4801 7.57997 17.0401 6.88997C16.9475 6.82903 16.88 6.73669 16.8501 6.62996C16.7075 5.78104 16.2465 5.0185 15.5609 4.49788C14.8754 3.97726 14.0171 3.73781 13.161 3.82839C12.305 3.91897 11.5158 4.33275 10.9544 4.98531C10.393 5.63787 10.1018 6.48003 10.1401 7.33998C10.155 7.40813 10.1486 7.47923 10.1218 7.54363C10.0949 7.60803 10.049 7.6626 9.99004 7.69997L4.99004 11.51C4.89706 11.5661 4.78595 11.584 4.68004 11.56C4.12774 11.3688 3.536 11.3206 2.96004 11.42C2.31819 11.5339 1.72317 11.8316 1.24709 12.2769C0.771008 12.7222 0.434318 13.2961 0.27779 13.9289C0.121262 14.5617 0.151635 15.2263 0.365222 15.8422C0.57881 16.4581 0.96645 16.9989 1.48116 17.3989C1.99587 17.799 2.61553 18.0411 3.26509 18.0961C3.91466 18.151 4.56623 18.0164 5.14083 17.7085C5.71543 17.4006 6.18841 16.9327 6.50243 16.3614C6.81645 15.7902 6.95805 15.1401 6.91005 14.49C6.91395 14.382 6.95654 14.2791 7.03005 14.2L12.08 10.35C12.1259 10.3304 12.1752 10.3204 12.2251 10.3204C12.2749 10.3204 12.3242 10.3304 12.37 10.35C12.8612 10.5327 13.3883 10.5981 13.9092 10.5408C14.4301 10.4835 14.9304 10.3051 15.37 10.02C15.4636 9.98555 15.5665 9.98555 15.6601 10.02L19.8501 11.93C19.943 11.9703 20.023 12.0356 20.0813 12.1185C20.1395 12.2014 20.1737 12.2988 20.18 12.4ZM33.4801 1.08998C33.933 1.09197 34.3751 1.22819 34.7506 1.48146C35.1261 1.73474 35.418 2.09367 35.5895 2.51287C35.761 2.93206 35.8043 3.39268 35.714 3.8365C35.6237 4.28033 35.4039 4.68741 35.0822 5.00627C34.7605 5.32513 34.3516 5.54147 33.907 5.62789C33.4624 5.71431 33.0021 5.66693 32.5845 5.49178C32.1668 5.31663 31.8104 5.02156 31.5604 4.64388C31.3105 4.2662 31.1781 3.8229 31.18 3.36998C31.1853 2.76346 31.43 2.18357 31.8607 1.75655C32.2915 1.32953 32.8735 1.08996 33.4801 1.08998ZM30.4801 5.08998L31.25 6.00997L26.4201 10.07L25.65 9.14998L30.4801 5.08998ZM23.4801 9.47997C24.085 9.48509 24.6641 9.72632 25.0937 10.1522C25.5234 10.5782 25.7696 11.1551 25.78 11.76C25.7416 12.3425 25.4831 12.8885 25.0569 13.2875C24.6307 13.6864 24.0688 13.9084 23.485 13.9084C22.9013 13.9084 22.3394 13.6864 21.9132 13.2875C21.487 12.8885 21.2285 12.3425 21.1901 11.76C21.1978 11.155 21.4416 10.5771 21.8694 10.1493C22.2972 9.72149 22.8751 9.47773 23.4801 9.46996V9.47997ZM3.48006 17.1C2.87271 17.1 2.29023 16.8587 1.86077 16.4292C1.43131 15.9998 1.19005 15.4173 1.19005 14.81C1.19005 14.2026 1.43131 13.6202 1.86077 13.1907C2.29023 12.7612 2.87271 12.52 3.48006 12.52C4.08673 12.5252 4.66723 12.7678 5.09716 13.1958C5.52709 13.6239 5.77222 14.2033 5.78005 14.81C5.77752 15.4087 5.54061 15.9827 5.12004 16.4088C4.69948 16.835 4.12871 17.0795 3.53005 17.09L3.48006 17.1ZM6.48006 13.25L5.75005 12.25C7.29005 11.07 8.83006 9.88998 10.3901 8.70998L11.11 9.65996L6.48006 13.25ZM13.4201 9.48998C12.8158 9.47731 12.2395 9.23228 11.8112 8.8058C11.3829 8.37933 11.1353 7.80422 11.12 7.19997C11.1585 6.61748 11.4171 6.07142 11.8432 5.67247C12.2694 5.27353 12.8313 5.05153 13.4151 5.05153C13.9988 5.05153 14.5607 5.27353 14.9869 5.67247C15.4131 6.07142 15.6716 6.61748 15.71 7.19997C15.696 7.78664 15.4621 8.34664 15.0546 8.76894C14.6471 9.19124 14.0959 9.44503 13.5101 9.47997L13.4201 9.48998ZM16.2201 9.13997L16.7201 8.04998L20.6001 9.81996C20.4201 10.2 20.27 10.54 20.09 10.91L16.2201 9.13997Z" fill="#161616"/>
<path d="M15.2697 13.89H11.6698C11.4467 13.8859 11.2251 13.9269 11.0183 14.0104C10.8114 14.0939 10.6234 14.2182 10.4657 14.3759C10.3079 14.5337 10.1836 14.7216 10.1001 14.9285C10.0166 15.1354 9.9757 15.357 9.97977 15.58C9.97977 16.09 9.97977 16.58 9.97977 17.11C9.97977 17.64 9.97977 18.11 9.97977 18.61C9.97694 18.7033 9.99832 18.7957 10.0418 18.8783C10.0854 18.9608 10.1495 19.0307 10.2281 19.081C10.3067 19.1314 10.3969 19.1605 10.4901 19.1656C10.5833 19.1707 10.6762 19.1515 10.7598 19.11C10.8597 19.057 10.9416 18.9754 10.995 18.8757C11.0484 18.7759 11.071 18.6626 11.0598 18.55V15.67C11.0598 15.18 11.2698 14.97 11.7598 14.97H15.2097C15.7597 14.97 15.9597 15.17 15.9597 15.73V32.73C15.9597 33.27 15.7598 33.48 15.2198 33.48H11.8498C11.2398 33.48 11.0598 33.29 11.0598 32.69V20.79C11.0476 20.6564 10.9871 20.5318 10.8894 20.4397C10.7918 20.3476 10.6639 20.2943 10.5298 20.29C10.3988 20.2864 10.2712 20.3314 10.1714 20.4164C10.0717 20.5013 10.007 20.6201 9.98975 20.75C9.98476 20.8333 9.98476 20.9167 9.98975 21V32.77C9.97182 33.011 10.0061 33.253 10.0902 33.4795C10.1743 33.706 10.3063 33.9117 10.4772 34.0826C10.648 34.2534 10.8537 34.3854 11.0803 34.4695C11.3068 34.5537 11.5488 34.5879 11.7898 34.57H15.2097C15.459 34.5915 15.7099 34.5581 15.9448 34.4721C16.1797 34.3861 16.3929 34.2496 16.5693 34.0722C16.7458 33.8949 16.8811 33.681 16.9658 33.4456C17.0506 33.2102 17.0826 32.9591 17.0598 32.71V24.24C17.0598 21.3867 17.0598 18.5367 17.0598 15.69C17.081 15.4492 17.0493 15.2066 16.967 14.9792C16.8847 14.7519 16.7537 14.5453 16.5832 14.3739C16.4127 14.2024 16.2069 14.0703 15.98 13.9867C15.7531 13.9031 15.5107 13.8701 15.2697 13.89Z" fill="#161616"/>
<path d="M25.2201 18.44H21.7701C21.5274 18.4204 21.2834 18.4538 21.0548 18.5378C20.8263 18.6218 20.6188 18.7545 20.4467 18.9266C20.2745 19.0988 20.1418 19.3063 20.0578 19.5348C19.9738 19.7633 19.9404 20.0073 19.9601 20.25C19.9601 24.41 19.9601 28.57 19.9601 32.73C19.9423 32.9701 19.9763 33.2112 20.0599 33.4369C20.1434 33.6627 20.2745 33.8679 20.4443 34.0386C20.614 34.2093 20.8184 34.3415 21.0437 34.4263C21.269 34.5111 21.5099 34.5465 21.7501 34.5301H25.2001C25.4454 34.5516 25.6924 34.519 25.9237 34.4346C26.155 34.3501 26.3649 34.2158 26.5386 34.0412C26.7122 33.8666 26.8454 33.6559 26.9286 33.4242C27.0118 33.1924 27.043 32.9452 27.0201 32.7V20.25C27.0412 20.0079 27.0093 19.764 26.9265 19.5355C26.8437 19.3069 26.712 19.0992 26.5406 18.9269C26.3692 18.7545 26.1622 18.6216 25.9341 18.5376C25.706 18.4535 25.4623 18.4202 25.2201 18.44ZM25.9401 32.68C25.9401 33.24 25.7401 33.44 25.1901 33.44H21.7601C21.2501 33.44 21.0401 33.23 21.0401 32.71V20.26C21.0401 19.74 21.2501 19.5301 21.7701 19.5301H25.2201C25.7301 19.5301 25.9401 19.75 25.9401 20.27V32.68Z" fill="#161616"/>
</g>
<defs>
<clipPath id="clip0_241_22">
<rect width="37" height="34.53" fill="white"/>
</clipPath>
</defs>
</svg>
