<svg width="41" height="41" viewBox="0 0 41 41" fill="none" xmlns="http://www.w3.org/2000/svg">
<path d="M27.2975 29.6944V24.1096C27.2975 23.5439 26.7153 22.869 25.7106 22.8689H15.2818C14.2737 22.8689 13.6949 23.5429 13.6949 24.1096V29.6944C13.6948 30.1786 13.3023 30.5712 12.8181 30.5712C12.334 30.5712 11.9415 30.1786 11.9414 29.6944V24.1096C11.9414 22.3353 13.5633 21.1155 15.2818 21.1155H25.7106C27.4236 21.1155 29.051 22.3344 29.051 24.1096V29.6944C29.0509 30.1785 28.6583 30.5711 28.1742 30.5712C27.6901 30.5712 27.2976 30.1786 27.2975 29.6944Z" fill="#0E1726"/>
<path d="M23.7246 13.9921C23.7246 11.9397 22.2374 10.4283 20.5816 10.4283C18.9258 10.4283 17.4385 11.9397 17.4385 13.9921C17.4385 16.0446 18.9258 17.556 20.5816 17.556C22.2374 17.556 23.7246 16.0446 23.7246 13.9921ZM25.4781 13.9921C25.4781 16.8447 23.366 19.3095 20.5816 19.3095C17.7972 19.3094 15.6851 16.8447 15.6851 13.9921C15.6851 11.1396 17.7972 8.67483 20.5816 8.6748C23.3659 8.6748 25.4781 11.1396 25.4781 13.9921Z" fill="#0E1726"/>
<path d="M38.945 13.7969C39.4063 13.6496 39.8996 13.9042 40.0469 14.3654C41.0697 17.5684 41.2735 20.9767 40.6394 24.2787C40.0053 27.5808 38.5532 30.6711 36.4167 33.2674C36.109 33.6412 35.5568 33.6949 35.1829 33.3873C34.809 33.0796 34.7554 32.5269 35.0631 32.1531C37.0132 29.7832 38.3383 26.9623 38.9172 23.9483C39.496 20.9341 39.3102 17.8226 38.3765 14.8988C38.2292 14.4376 38.4838 13.9442 38.945 13.7969Z" fill="#0E1726"/>
<path d="M7.48445 4.79422C11.3247 1.5215 16.2569 -0.184609 21.2986 0.0158584C26.3402 0.216336 31.1214 2.30868 34.6897 5.87601C35.0321 6.2183 35.0323 6.77332 34.6901 7.11577C34.3478 7.4582 33.7924 7.45853 33.4499 7.11619C30.1934 3.86053 25.83 1.951 21.2288 1.76804C16.6276 1.58511 12.1262 3.14221 8.62146 6.12901C8.25293 6.44291 7.69958 6.39859 7.38556 6.03012C7.0716 5.66159 7.11596 5.10826 7.48445 4.79422Z" fill="#0E1726"/>
<path d="M4.56076 7.76368C4.86793 7.38942 5.42024 7.33497 5.79452 7.6421C6.16878 7.94928 6.22324 8.50158 5.9161 8.87586C3.95344 11.2671 2.62788 14.1163 2.06242 17.1577C1.49698 20.1992 1.71019 23.3345 2.68229 26.2714C2.83445 26.7311 2.58502 27.2271 2.12535 27.3793C1.66567 27.5314 1.1696 27.282 1.01744 26.8223C-0.0475857 23.6046 -0.280995 20.1698 0.33849 16.8375C0.957996 13.5052 2.41041 10.3837 4.56076 7.76368Z" fill="#0E1726"/>
<path d="M5.61052 33.0649C5.97164 32.7424 6.52558 32.7736 6.84814 33.1347C9.96937 36.6293 14.3122 38.7941 18.9815 39.1832C23.6508 39.5723 28.2915 38.156 31.948 35.2263C32.3258 34.9236 32.8777 34.9843 33.1805 35.3621C33.4832 35.7399 33.4225 36.2917 33.0448 36.5945C29.0379 39.805 23.9522 41.3571 18.8356 40.9307C13.719 40.5043 8.9609 38.1318 5.54074 34.3025C5.21821 33.9414 5.24942 33.3875 5.61052 33.0649Z" fill="#0E1726"/>
<path d="M4.64648 38.3039V32.7674C4.64648 32.2832 5.03901 31.8906 5.52322 31.8906H11.1826C11.6668 31.8907 12.0593 32.2832 12.0593 32.7674C12.0593 33.2515 11.6668 33.6441 11.1826 33.6441H6.39995V38.3039C6.39995 38.7881 6.00742 39.1806 5.52322 39.1806C5.03901 39.1806 4.64648 38.7881 4.64648 38.3039Z" fill="#0E1726"/>
<path d="M35.2871 1.21802C35.7713 1.21725 36.1643 1.60926 36.1651 2.09347L36.1741 7.62998C36.1744 7.86249 36.0822 8.08562 35.9181 8.25029C35.7539 8.41493 35.5311 8.50764 35.2986 8.508L29.6392 8.51699C29.1551 8.5177 28.762 8.12568 28.7612 7.64154C28.7605 7.15733 29.1525 6.76427 29.6367 6.76352L34.4189 6.75582L34.4116 2.09604C34.4109 1.61189 34.8029 1.21881 35.2871 1.21802Z" fill="#0E1726"/>
</svg>
